<svg xmlns="http://www.w3.org/2000/svg" viewBox="0 0 1150.14 491.61"><defs><style>.cls-1{fill:#1998e8;}.cls-2{fill:#30343f;}</style></defs><title>Asset 7</title><g id="Layer_2" data-name="Layer 2"><g id="Layer_1-2" data-name="Layer 1"><path class="cls-1" d="M319.22,229.79c-6.48,15.46-14.48,29.31-24.3,41,10.77,16.95,16.69,37.75,16.69,62.93,0,107.33-99.92,111.15-111.24,111.24H157.73v44.49h42.65c53.86,0,155.73-32.55,155.73-155.73C356.11,291.51,343,256.39,319.22,229.79Z"/><path class="cls-1" d="M267.12,333.71c0-12.87-2.86-23.47-7.41-32.27a186.88,186.88,0,0,1-39.83,20.42,24.5,24.5,0,0,1,2.75,11.85c0,17.92-12.23,22-22.25,22.25H157.73v44.49h42.65C227.21,400.45,267.12,382.68,267.12,333.71Z"/><path class="cls-1" d="M135.48,489.44H91V267h64.89c11.32-.09,111.24-3.91,111.24-111.24,0-110-106.7-111.24-111.24-111.24H.15V0H155.88c53.86,0,155.73,32.55,155.73,155.73S209.74,311.46,155.88,311.46h-20.4Z"/><path class="cls-1" d="M2.15,489.59,0,178H155.88c10-.26,22.25-4.32,22.25-22.25s-12.23-22-22.51-22.25H.15V89H155.88c26.83,0,66.74,17.77,66.74,66.74s-39.91,66.74-66.74,66.74H44.8l1.85,266.81Z"/><path class="cls-2" d="M547.29,195.81q-14.08,11.73-40.15,11.73H473.8v57.57H440.56V105H509.3q23.79,0,37.91,12.38t14.14,38.35Q561.35,184.08,547.29,195.81Zm-25.55-57.68q-6.35-5.31-17.79-5.32H473.8V180H504q11.44,0,17.79-5.76t6.37-18.25C528.11,147.63,526,141.67,521.75,138.13Z"/><path class="cls-2" d="M623.68,193.1q8.64-1.08,12.36-2.72,6.68-2.84,6.67-8.8,0-7.27-5.13-10.06c-3.41-1.82-8.41-2.76-15-2.76q-11.11,0-15.73,5.43c-2.22,2.67-3.67,6.3-4.41,10.86H572.54q1-15.54,8.73-25.53,12.32-15.64,42.32-15.64,19.52,0,34.7,7.71t15.16,29.11V235q0,5.64.22,13.69c.22,4.06.83,6.8,1.85,8.26a11.08,11.08,0,0,0,4.56,3.58v4.56H646.41a35.37,35.37,0,0,1-2-6.74c-.37-2.11-.65-4.5-.87-7.17a64.27,64.27,0,0,1-14.86,11.84A44.79,44.79,0,0,1,606,268.81q-16.16,0-26.72-9.17t-10.54-26q0-21.83,17-31.61,9.29-5.31,27.35-7.6Zm18.92,14.45a35.11,35.11,0,0,1-6,3,53.54,53.54,0,0,1-8.32,2.11l-7,1.3c-6.6,1.15-11.36,2.56-14.23,4.24q-7.33,4.24-7.32,13.14,0,7.92,4.48,11.45A16.87,16.87,0,0,0,615,246.33a32.32,32.32,0,0,0,18.68-5.87q8.57-5.87,8.89-21.4Z"/><path class="cls-2" d="M761.84,143.93c.41,0,1.3.11,2.67.17v31.72c-2-.22-3.69-.37-5.21-.43s-2.76-.11-3.69-.11q-18.67,0-25.09,12.17-3.58,6.84-3.58,21.07v56.6H695.75V146.71h29.55v20.64q7.17-11.83,12.49-16.19,8.7-7.27,22.59-7.28C761,143.89,761.45,143.91,761.84,143.93Z"/><path class="cls-2" d="M777.87,105.54h30.42v86.38l39-44.67h38.5l-42.43,44.1,44.08,73.76H849.8l-28.7-50.6-12.82,13.34v37.26H777.87Z"/><path class="cls-2" d="M559.22,344.53q7.33,10.2,7.34,24.44,0,14.66-7.41,23.57-4.17,5-12.21,9.12,12.25,4.46,18.49,14.12t6.24,23.46a46.78,46.78,0,0,1-7.13,25.53,44.09,44.09,0,0,1-29.44,20.64,110.39,110.39,0,0,1-22.62,2.17H440.34V327.47h77.39Q547,327.9,559.22,344.53Zm-86.95,10.75v35.3h38.91q10.43,0,16.95-4t6.5-14.06q0-11.18-8.6-14.77-7.43-2.51-18.92-2.5Zm0,61.81v42.69h38.87q10.43,0,16.23-2.82,10.53-5.21,10.52-20,0-12.48-10.21-17.16c-3.78-1.74-9.12-2.65-16-2.72Z"/><path class="cls-2" d="M615.47,369.19v71.37q0,10.1,2.37,15.21,4.24,9,16.56,9,15.77,0,21.62-12.82,3-6.94,3-18.36V369.19h31.39V487.59H660.33V470.86c-.28.37-1,1.46-2.17,3.26a21.71,21.71,0,0,1-4.11,4.78q-7.27,6.52-14,8.91a47.85,47.85,0,0,1-15.86,2.39q-26.23,0-35.33-18.9-5.08-10.43-5.08-30.74V369.19Z"/><path class="cls-2" d="M765.05,326l6.52.5v25.2c-1.74-.22-4.65-.37-8.73-.5s-6.93.8-8.47,2.74a9.77,9.77,0,0,0-2.35,6.34v10h20.31v21.83H752v95.48H721.28V392.11H703.89V370.27h16.95v-7.6q0-19,6.41-26.18,6.75-10.66,32.48-10.65C761.69,325.84,763.47,325.91,765.05,326Z"/><path class="cls-2" d="M843.59,326l6.52.5v25.2c-1.74-.22-4.65-.37-8.73-.5s-6.93.8-8.47,2.74a9.77,9.77,0,0,0-2.35,6.34v10h20.31v21.83H830.56v95.48H799.81V392.11H782.43V370.27h16.95v-7.6q0-19,6.41-26.18,6.75-10.66,32.48-10.65C840.22,325.84,842,325.91,843.59,326Z"/><path class="cls-2" d="M911.14,415.57q8.64-1.08,12.36-2.72,6.68-2.84,6.67-8.8,0-7.27-5.13-10.06c-3.41-1.82-8.41-2.76-15-2.76q-11.11,0-15.73,5.43c-2.22,2.67-3.67,6.3-4.41,10.86H860Q861,392,868.73,382q12.32-15.64,42.32-15.64,19.52,0,34.7,7.71t15.16,29.11V457.5q0,5.64.22,13.69c.22,4.06.83,6.8,1.85,8.26a11.08,11.08,0,0,0,4.56,3.58v4.56H933.86a35.37,35.37,0,0,1-2-6.74c-.37-2.11-.65-4.5-.87-7.17a64.27,64.27,0,0,1-14.86,11.84,44.79,44.79,0,0,1-22.73,5.76q-16.16,0-26.72-9.17t-10.54-26q0-21.83,17-31.61,9.29-5.31,27.35-7.6ZM930.06,430a35.11,35.11,0,0,1-6,3,53.54,53.54,0,0,1-8.32,2.11l-7,1.3c-6.6,1.15-11.36,2.56-14.23,4.24q-7.33,4.24-7.32,13.14,0,7.92,4.48,11.45a16.87,16.87,0,0,0,10.86,3.54,32.32,32.32,0,0,0,18.68-5.87q8.57-5.87,8.89-21.4Z"/><path class="cls-2" d="M1015.12,487.59h-31V327.47h31Z"/><path class="cls-2" d="M1135.15,473.1q-15,18.51-45.52,18.51t-45.52-18.51q-15-18.51-15-44.56,0-25.58,15-44.39t45.52-18.77q30.54,0,45.52,18.77t15,44.39Q1150.14,454.61,1135.15,473.1ZM1110.38,456q7.27-9.68,7.28-27.46c0-11.84-2.43-21-7.28-27.37s-11.8-9.6-20.86-9.6-16,3.19-20.9,9.6-7.34,15.53-7.34,27.37,2.43,21,7.34,27.46,11.84,9.65,20.9,9.65S1105.54,462.43,1110.38,456Z"/></g></g></svg>